<svg width="2377" height="654" viewBox="0 0 2377 654" fill="none" xmlns="http://www.w3.org/2000/svg">
<path fill-rule="evenodd" clip-rule="evenodd" d="M0 414.841V10.3428H140.77C199.951 10.3431 320.036 56.3077 320.036 212.592C320.036 368.876 217.762 414.841 140.77 414.841H0ZM73.5451 341.296V83.8879H140.77C184.437 83.8879 245.342 128.321 245.342 212.592C245.342 296.862 201.674 341.296 140.77 341.296H73.5451Z" fill="black"/>
<path d="M394.156 10.3428V414.841H614.791V341.87H468.275V230.977H614.791V158.007H468.275V84.4619H614.791V10.3428H394.156Z" fill="black"/>
<path d="M1002.63 294.18L1054.34 345.892C1054.34 345.892 995.731 425.757 879.668 425.757C757.285 425.757 667.651 334.975 667.651 212.879C667.651 90.7822 757.285 0 879.668 0C996.881 0 1054.34 79.8653 1054.34 79.8653L1002.63 131.577C1002.63 131.577 963.555 73.5451 879.668 73.5451C801.526 73.5451 741.197 131.577 741.197 212.879C741.197 294.18 802.954 352.212 879.668 352.212C964.705 352.212 1002.63 294.18 1002.63 294.18Z" fill="black"/>
<path d="M1119.84 10.3428H1193.38V414.841H1119.84V10.3428Z" fill="black"/>
<path d="M1247.39 339.571L1311.75 300.501C1311.75 300.501 1335.3 352.212 1374.37 352.212C1400.23 352.212 1429.53 340.879 1429.53 314.865C1429.53 255.108 1266.93 204.817 1266.93 99.4008C1266.93 43.0917 1322.66 0 1374.37 0C1456.54 0 1493.31 65.5011 1493.31 65.5011L1437.58 116.063C1437.58 116.063 1418.04 73.5451 1374.37 73.5451C1358.29 73.5451 1340.47 79.8653 1340.47 99.4008C1340.47 148.239 1503.08 206.271 1503.08 314.865C1503.08 359.681 1467.45 425.757 1374.37 425.757C1284.73 425.757 1247.39 339.571 1247.39 339.571Z" fill="black"/>
<path d="M1572.03 10.3428H1650.74V314.865C1650.74 328.079 1679.47 352.211 1711.36 352.211C1743.25 352.211 1771.98 329.803 1771.98 314.865V10.3428H1850.12V272.92C1850.12 368.299 1799.56 425.757 1711.36 425.757C1635.28 425.757 1572.03 381.514 1572.03 272.92V10.3428Z" fill="black"/>
<path d="M1903.55 414.841H1977.1L2020.77 158.006L2108.1 414.841H2141.43H2174.75L2259.79 158.006L2303.45 414.841H2377L2308.05 10.3412H2234.51L2141.43 290.157L2045.47 10.3412H1973.65L1903.55 414.841Z" fill="black"/>
<rect y="450.128" width="2377" height="203" fill="#C50208"/>
<path d="M38.669 610.127L80.3042 501.378H94.1308L135.455 610.127H122.25L95.6844 539.596C94.9594 537.628 94.1308 535.349 93.1987 532.76C92.3701 530.067 91.438 527.323 90.4023 524.526C89.4701 521.626 88.538 518.83 87.6059 516.137C86.7773 513.444 86.0006 511.062 85.2756 508.991H88.3827C87.5541 511.58 86.6738 514.221 85.7416 516.914C84.9131 519.503 84.0327 522.144 83.1006 524.837C82.1685 527.426 81.2363 530.016 80.3042 532.605C79.3721 535.194 78.4399 537.783 77.5078 540.373L51.0974 610.127H38.669ZM56.3795 580.143L60.8848 568.336H112.307L117.279 580.143H56.3795ZM177.451 611.681C170.097 611.681 163.469 609.868 157.565 606.243C151.766 602.618 147.157 597.647 143.739 591.329C140.425 584.908 138.767 577.658 138.767 569.579C138.767 561.397 140.476 554.147 143.894 547.83C147.312 541.408 151.921 536.385 157.721 532.76C163.521 529.135 170.046 527.323 177.296 527.323C181.335 527.323 185.219 527.944 188.947 529.187C192.779 530.43 196.197 532.19 199.201 534.469C202.204 536.644 204.69 539.181 206.658 542.081C208.625 544.878 209.817 547.83 210.231 550.937L206.658 549.694V495.164H218.309V610.127H206.813L206.502 589.931L209.454 588.843C209.04 591.743 207.849 594.591 205.881 597.388C204.017 600.081 201.634 602.515 198.735 604.69C195.835 606.864 192.52 608.573 188.792 609.816C185.167 611.059 181.387 611.681 177.451 611.681ZM179.16 600.961C184.545 600.961 189.361 599.615 193.608 596.922C197.854 594.229 201.168 590.5 203.551 585.736C206.036 580.972 207.279 575.535 207.279 569.424C207.279 563.313 206.036 557.928 203.551 553.267C201.168 548.503 197.854 544.774 193.608 542.081C189.361 539.285 184.545 537.887 179.16 537.887C173.567 537.887 168.647 539.285 164.401 542.081C160.258 544.774 156.944 548.503 154.458 553.267C152.076 557.928 150.885 563.313 150.885 569.424C150.885 575.431 152.076 580.817 154.458 585.581C156.84 590.345 160.155 594.125 164.401 596.922C168.647 599.615 173.567 600.961 179.16 600.961ZM237.743 610.127V529.032H249.395L249.706 547.519L247.375 548.296C248.204 545.189 249.55 542.392 251.414 539.906C253.382 537.317 255.713 535.09 258.405 533.226C261.098 531.362 264.05 529.964 267.261 529.032C270.471 527.996 273.837 527.478 277.359 527.478C281.605 527.478 285.385 528.203 288.7 529.653C292.118 530.999 294.966 533.382 297.244 536.799C299.626 540.114 301.439 544.515 302.682 550.005L299.885 548.606L300.973 545.965C302.008 543.583 303.51 541.305 305.478 539.13C307.549 536.851 309.88 534.832 312.469 533.071C315.162 531.31 318.062 529.964 321.169 529.032C324.38 527.996 327.642 527.478 330.956 527.478C336.653 527.478 341.469 528.721 345.404 531.207C349.34 533.589 352.292 537.265 354.26 542.237C356.331 547.208 357.367 553.526 357.367 561.19V610.127H345.404V561.812C345.404 556.426 344.731 552.024 343.385 548.606C342.038 545.189 340.019 542.651 337.326 540.994C334.737 539.233 331.422 538.353 327.383 538.353C323.862 538.353 320.599 538.974 317.596 540.217C314.696 541.356 312.158 543.014 309.983 545.189C307.912 547.26 306.255 549.642 305.012 552.335C303.873 555.028 303.303 557.928 303.303 561.035V610.127H291.496V561.656C291.496 556.478 290.771 552.18 289.321 548.762C287.975 545.344 285.955 542.755 283.262 540.994C280.569 539.233 277.255 538.353 273.32 538.353C269.902 538.353 266.743 538.974 263.843 540.217C260.943 541.356 258.405 542.962 256.23 545.033C254.159 547.105 252.502 549.487 251.259 552.18C250.12 554.872 249.55 557.772 249.55 560.879V610.127H237.743ZM379.448 610.127V529.032H391.099V610.127H379.448ZM385.196 511.476C382.296 511.476 380.069 510.751 378.516 509.301C377.066 507.748 376.341 505.677 376.341 503.087C376.341 500.498 377.117 498.427 378.671 496.873C380.224 495.32 382.399 494.543 385.196 494.543C387.992 494.543 390.167 495.32 391.721 496.873C393.274 498.323 394.051 500.394 394.051 503.087C394.051 505.573 393.274 507.593 391.721 509.146C390.167 510.7 387.992 511.476 385.196 511.476ZM413.438 610.127V529.032H424.934L425.4 545.965L423.536 546.742C424.571 543.221 426.591 540.01 429.595 537.11C432.598 534.21 436.171 531.88 440.314 530.119C444.56 528.255 448.91 527.323 453.364 527.323C459.371 527.323 464.394 528.514 468.433 530.896C472.473 533.278 475.528 536.955 477.599 541.926C479.671 546.897 480.706 553.215 480.706 560.879V610.127H468.899V561.501C468.899 556.115 468.174 551.713 466.724 548.296C465.378 544.774 463.255 542.185 460.355 540.528C457.455 538.871 453.882 538.094 449.635 538.198C446.114 538.198 442.852 538.819 439.848 540.062C436.845 541.201 434.255 542.806 432.08 544.878C429.905 546.949 428.196 549.331 426.954 552.024C425.711 554.717 425.089 557.617 425.089 560.724V610.127H419.341C418.616 610.127 417.788 610.127 416.856 610.127C415.923 610.127 414.784 610.127 413.438 610.127ZM502.949 610.127V529.032H514.601V610.127H502.949ZM508.697 511.476C505.797 511.476 503.57 510.751 502.017 509.301C500.567 507.748 499.842 505.677 499.842 503.087C499.842 500.498 500.619 498.427 502.172 496.873C503.726 495.32 505.901 494.543 508.697 494.543C511.493 494.543 513.668 495.32 515.222 496.873C516.776 498.323 517.552 500.394 517.552 503.087C517.552 505.573 516.776 507.593 515.222 509.146C513.668 510.7 511.493 511.476 508.697 511.476ZM563.505 611.681C556.565 611.681 550.351 610.386 544.862 607.797C539.373 605.207 535.023 601.79 531.812 597.543L540.046 590.397C543.05 594.022 546.571 596.766 550.61 598.631C554.753 600.495 559.362 601.427 564.437 601.427C567.026 601.427 569.356 601.168 571.428 600.65C573.499 600.029 575.312 599.149 576.865 598.009C578.419 596.87 579.61 595.524 580.438 593.97C581.267 592.416 581.681 590.708 581.681 588.843C581.681 585.425 580.179 582.577 577.176 580.299C575.83 579.367 573.913 578.435 571.428 577.502C568.942 576.467 565.939 575.483 562.417 574.551C556.617 572.894 551.801 571.236 547.969 569.579C544.137 567.819 541.134 565.799 538.959 563.52C537.405 561.656 536.214 559.637 535.385 557.462C534.66 555.287 534.298 552.904 534.298 550.315C534.298 547.001 534.971 543.946 536.318 541.149C537.768 538.353 539.735 535.919 542.221 533.848C544.81 531.673 547.814 530.067 551.232 529.032C554.753 527.892 558.533 527.323 562.573 527.323C566.405 527.323 570.185 527.841 573.913 528.876C577.642 529.912 581.112 531.414 584.322 533.382C587.533 535.349 590.278 537.68 592.556 540.373L585.41 548.14C583.442 546.069 581.267 544.205 578.885 542.547C576.503 540.89 573.965 539.596 571.272 538.664C568.683 537.731 565.99 537.265 563.194 537.265C560.708 537.265 558.378 537.576 556.203 538.198C554.132 538.819 552.319 539.699 550.766 540.839C549.316 541.874 548.176 543.169 547.348 544.722C546.623 546.276 546.26 547.985 546.26 549.849C546.26 551.403 546.571 552.801 547.192 554.044C547.814 555.287 548.694 556.374 549.833 557.306C551.283 558.445 553.303 559.533 555.892 560.569C558.585 561.501 561.899 562.485 565.835 563.52C570.392 564.763 574.224 566.058 577.331 567.404C580.542 568.647 583.183 570.149 585.254 571.91C588.051 573.981 590.019 576.363 591.158 579.056C592.401 581.749 593.022 584.804 593.022 588.222C593.022 592.779 591.728 596.818 589.138 600.34C586.653 603.861 583.183 606.657 578.729 608.729C574.276 610.697 569.201 611.681 563.505 611.681ZM619.357 610.127V507.748H631.009V610.127H619.357ZM601.025 540.217V529.032H651.516V540.217H601.025ZM662.716 610.127V529.032H674.367L674.678 550.626L673.435 547.674C674.575 544.049 676.387 540.683 678.873 537.576C681.462 534.469 684.517 531.983 688.039 530.119C691.56 528.255 695.444 527.323 699.69 527.323C701.451 527.323 703.108 527.478 704.662 527.789C706.215 527.996 707.51 528.307 708.546 528.721L705.283 541.771C703.937 541.149 702.539 540.735 701.089 540.528C699.742 540.217 698.448 540.062 697.205 540.062C693.683 540.062 690.524 540.683 687.728 541.926C684.932 543.169 682.55 544.93 680.582 547.208C678.614 549.383 677.112 551.921 676.076 554.821C675.041 557.721 674.523 560.828 674.523 564.142V610.127H662.716ZM745.767 611.681C738.724 611.681 732.354 609.868 726.658 606.243C720.961 602.515 716.456 597.491 713.142 591.174C709.828 584.752 708.171 577.502 708.171 569.424C708.171 561.242 709.879 553.992 713.297 547.674C716.715 541.356 721.272 536.385 726.969 532.76C732.768 529.135 739.242 527.323 746.388 527.323C750.634 527.323 754.57 527.944 758.195 529.187C761.82 530.43 765.031 532.19 767.827 534.469C770.727 536.644 773.109 539.233 774.973 542.237C776.941 545.137 778.288 548.296 779.013 551.713L775.595 550.005L776.061 529.032H787.712V610.127H775.905V590.242L779.013 588.222C778.288 591.329 776.889 594.333 774.818 597.232C772.747 600.029 770.209 602.515 767.206 604.69C764.306 606.864 760.991 608.573 757.263 609.816C753.638 611.059 749.806 611.681 745.767 611.681ZM748.408 600.495C753.793 600.495 758.609 599.2 762.856 596.611C767.102 593.918 770.416 590.242 772.798 585.581C775.284 580.817 776.527 575.431 776.527 569.424C776.527 563.417 775.284 558.083 772.798 553.422C770.416 548.762 767.102 545.085 762.856 542.392C758.609 539.699 753.793 538.353 748.408 538.353C742.918 538.353 738.051 539.699 733.804 542.392C729.661 545.085 726.347 548.762 723.861 553.422C721.479 558.083 720.288 563.417 720.288 569.424C720.288 575.327 721.479 580.661 723.861 585.425C726.244 590.086 729.558 593.763 733.804 596.456C738.051 599.149 742.918 600.495 748.408 600.495ZM840.241 611.681C832.887 611.681 826.259 609.868 820.355 606.243C814.555 602.618 809.946 597.647 806.529 591.329C803.214 584.908 801.557 577.658 801.557 569.579C801.557 561.397 803.266 554.147 806.684 547.83C810.102 541.408 814.711 536.385 820.511 532.76C826.31 529.135 832.835 527.323 840.085 527.323C844.124 527.323 848.008 527.944 851.737 529.187C855.569 530.43 858.987 532.19 861.99 534.469C864.994 536.644 867.48 539.181 869.447 542.081C871.415 544.878 872.606 547.83 873.021 550.937L869.447 549.694V495.164H881.099V610.127H869.603L869.292 589.931L872.244 588.843C871.829 591.743 870.638 594.591 868.671 597.388C866.806 600.081 864.424 602.515 861.524 604.69C858.624 606.864 855.31 608.573 851.582 609.816C847.957 611.059 844.176 611.681 840.241 611.681ZM841.95 600.961C847.335 600.961 852.151 599.615 856.398 596.922C860.644 594.229 863.958 590.5 866.34 585.736C868.826 580.972 870.069 575.535 870.069 569.424C870.069 563.313 868.826 557.928 866.34 553.267C863.958 548.503 860.644 544.774 856.398 542.081C852.151 539.285 847.335 537.887 841.95 537.887C836.357 537.887 831.437 539.285 827.191 542.081C823.048 544.774 819.734 548.503 817.248 553.267C814.866 557.928 813.675 563.313 813.675 569.424C813.675 575.431 814.866 580.817 817.248 585.581C819.63 590.345 822.944 594.125 827.191 596.922C831.437 599.615 836.357 600.961 841.95 600.961ZM936.575 611.681C928.497 611.681 921.299 609.868 914.981 606.243C908.767 602.618 903.847 597.595 900.222 591.174C896.701 584.752 894.94 577.451 894.94 569.269C894.94 561.19 896.701 553.992 900.222 547.674C903.847 541.356 908.767 536.385 914.981 532.76C921.299 529.135 928.497 527.323 936.575 527.323C944.55 527.323 951.645 529.135 957.859 532.76C964.177 536.385 969.096 541.356 972.618 547.674C976.243 553.992 978.055 561.19 978.055 569.269C978.055 577.451 976.243 584.752 972.618 591.174C969.096 597.595 964.177 602.618 957.859 606.243C951.645 609.868 944.55 611.681 936.575 611.681ZM936.575 600.65C942.272 600.65 947.347 599.304 951.8 596.611C956.254 593.815 959.723 590.086 962.209 585.425C964.695 580.661 965.937 575.276 965.937 569.269C965.937 563.262 964.695 557.928 962.209 553.267C959.723 548.606 956.254 544.981 951.8 542.392C947.347 539.699 942.272 538.353 936.575 538.353C930.879 538.353 925.752 539.699 921.195 542.392C916.742 544.981 913.22 548.658 910.631 553.422C908.145 558.083 906.954 563.365 907.058 569.269C906.954 575.276 908.145 580.661 910.631 585.425C913.22 590.086 916.742 593.815 921.195 596.611C925.752 599.304 930.879 600.65 936.575 600.65ZM991.947 610.127V529.032H1003.6L1003.91 550.626L1002.67 547.674C1003.81 544.049 1005.62 540.683 1008.1 537.576C1010.69 534.469 1013.75 531.983 1017.27 530.119C1020.79 528.255 1024.68 527.323 1028.92 527.323C1030.68 527.323 1032.34 527.478 1033.89 527.789C1035.45 527.996 1036.74 528.307 1037.78 528.721L1034.51 541.771C1033.17 541.149 1031.77 540.735 1030.32 540.528C1028.97 540.217 1027.68 540.062 1026.44 540.062C1022.91 540.062 1019.76 540.683 1016.96 541.926C1014.16 543.169 1011.78 544.93 1009.81 547.208C1007.85 549.383 1006.34 551.921 1005.31 554.821C1004.27 557.721 1003.75 560.828 1003.75 564.142V610.127H991.947ZM1075 611.681C1067.96 611.681 1061.59 609.868 1055.89 606.243C1050.19 602.515 1045.69 597.491 1042.37 591.174C1039.06 584.752 1037.4 577.502 1037.4 569.424C1037.4 561.242 1039.11 553.992 1042.53 547.674C1045.95 541.356 1050.5 536.385 1056.2 532.76C1062 529.135 1068.47 527.323 1075.62 527.323C1079.87 527.323 1083.8 527.944 1087.43 529.187C1091.05 530.43 1094.26 532.19 1097.06 534.469C1099.96 536.644 1102.34 539.233 1104.2 542.237C1106.17 545.137 1107.52 548.296 1108.24 551.713L1104.83 550.005L1105.29 529.032H1116.94V610.127H1105.14V590.242L1108.24 588.222C1107.52 591.329 1106.12 594.333 1104.05 597.232C1101.98 600.029 1099.44 602.515 1096.44 604.69C1093.54 606.864 1090.22 608.573 1086.49 609.816C1082.87 611.059 1079.04 611.681 1075 611.681ZM1077.64 600.495C1083.02 600.495 1087.84 599.2 1092.09 596.611C1096.33 593.918 1099.65 590.242 1102.03 585.581C1104.52 580.817 1105.76 575.431 1105.76 569.424C1105.76 563.417 1104.52 558.083 1102.03 553.422C1099.65 548.762 1096.33 545.085 1092.09 542.392C1087.84 539.699 1083.02 538.353 1077.64 538.353C1072.15 538.353 1067.28 539.699 1063.04 542.392C1058.89 545.085 1055.58 548.762 1053.09 553.422C1050.71 558.083 1049.52 563.417 1049.52 569.424C1049.52 575.327 1050.71 580.661 1053.09 585.425C1055.48 590.086 1058.79 593.763 1063.04 596.456C1067.28 599.149 1072.15 600.495 1077.64 600.495ZM1222.34 611.681C1214.98 611.681 1208.35 609.868 1202.45 606.243C1196.65 602.618 1192.04 597.647 1188.62 591.329C1185.31 584.908 1183.65 577.658 1183.65 569.579C1183.65 561.397 1185.36 554.147 1188.78 547.83C1192.2 541.408 1196.81 536.385 1202.61 532.76C1208.4 529.135 1214.93 527.323 1222.18 527.323C1226.22 527.323 1230.1 527.944 1233.83 529.187C1237.66 530.43 1241.08 532.19 1244.08 534.469C1247.09 536.644 1249.57 539.181 1251.54 542.081C1253.51 544.878 1254.7 547.83 1255.12 550.937L1251.54 549.694V495.164H1263.19V610.127H1251.7L1251.39 589.931L1254.34 588.843C1253.92 591.743 1252.73 594.591 1250.77 597.388C1248.9 600.081 1246.52 602.515 1243.62 604.69C1240.72 606.864 1237.4 608.573 1233.68 609.816C1230.05 611.059 1226.27 611.681 1222.34 611.681ZM1224.04 600.961C1229.43 600.961 1234.25 599.615 1238.49 596.922C1242.74 594.229 1246.05 590.5 1248.43 585.736C1250.92 580.972 1252.16 575.535 1252.16 569.424C1252.16 563.313 1250.92 557.928 1248.43 553.267C1246.05 548.503 1242.74 544.774 1238.49 542.081C1234.25 539.285 1229.43 537.887 1224.04 537.887C1218.45 537.887 1213.53 539.285 1209.29 542.081C1205.14 544.774 1201.83 548.503 1199.34 553.267C1196.96 557.928 1195.77 563.313 1195.77 569.424C1195.77 575.431 1196.96 580.817 1199.34 585.581C1201.72 590.345 1205.04 594.125 1209.29 596.922C1213.53 599.615 1218.45 600.961 1224.04 600.961ZM1318.51 611.681C1310.44 611.681 1303.24 609.92 1296.92 606.398C1290.71 602.877 1285.84 597.957 1282.32 591.64C1278.8 585.322 1277.03 578.072 1277.03 569.89C1277.03 563.572 1278.02 557.876 1279.99 552.801C1281.95 547.622 1284.7 543.117 1288.22 539.285C1291.85 535.453 1296.14 532.501 1301.11 530.43C1306.09 528.255 1311.47 527.167 1317.27 527.167C1322.76 527.167 1327.73 528.151 1332.19 530.119C1336.74 532.087 1340.63 534.832 1343.84 538.353C1347.15 541.771 1349.64 545.862 1351.29 550.626C1352.95 555.39 1353.68 560.62 1353.47 566.317L1353.31 571.754H1285.73L1284.03 561.967H1344.46L1341.66 564.608V560.879C1341.46 557.151 1340.37 553.578 1338.4 550.16C1336.43 546.639 1333.64 543.79 1330.01 541.615C1326.49 539.44 1322.24 538.353 1317.27 538.353C1311.47 538.353 1306.45 539.544 1302.2 541.926C1297.96 544.205 1294.69 547.622 1292.41 552.18C1290.14 556.737 1289 562.381 1289 569.113C1289 575.535 1290.24 581.127 1292.73 585.892C1295.21 590.552 1298.73 594.177 1303.29 596.766C1307.95 599.356 1313.54 600.65 1320.07 600.65C1323.9 600.65 1327.68 600.029 1331.41 598.786C1335.24 597.44 1339.44 594.85 1343.99 591.018L1350.05 599.407C1347.67 601.79 1344.82 603.913 1341.51 605.777C1338.19 607.538 1334.57 608.988 1330.63 610.127C1326.7 611.163 1322.66 611.681 1318.51 611.681ZM1480.36 611.681C1472.6 611.681 1465.45 610.334 1458.92 607.641C1452.4 604.845 1446.75 600.961 1441.99 595.99C1437.23 590.915 1433.5 584.959 1430.8 578.124C1428.22 571.288 1426.92 563.831 1426.92 555.753C1426.92 547.778 1428.22 540.476 1430.8 533.848C1433.5 527.116 1437.28 521.264 1442.15 516.292C1447.01 511.218 1452.66 507.334 1459.08 504.641C1465.5 501.948 1472.54 500.602 1480.21 500.602C1485.28 500.602 1490.31 501.43 1495.28 503.087C1500.25 504.641 1504.81 506.816 1508.95 509.612C1513.19 512.409 1516.66 515.619 1519.36 519.244L1510.97 527.944C1508.38 524.837 1505.38 522.144 1501.96 519.866C1498.64 517.587 1495.12 515.826 1491.39 514.584C1487.66 513.341 1483.94 512.719 1480.21 512.719C1474.41 512.719 1468.97 513.807 1463.9 515.982C1458.92 518.053 1454.63 521.005 1451 524.837C1447.38 528.669 1444.53 533.226 1442.46 538.508C1440.49 543.79 1439.5 549.538 1439.5 555.753C1439.5 562.174 1440.49 568.078 1442.46 573.463C1444.53 578.849 1447.43 583.509 1451.16 587.445C1454.99 591.277 1459.44 594.281 1464.52 596.456C1469.7 598.527 1475.44 599.563 1481.76 599.563C1485.49 599.563 1489.22 599.045 1492.95 598.009C1496.68 596.87 1500.09 595.316 1503.2 593.349C1506.31 591.381 1508.95 589.154 1511.12 586.668L1517.34 596.766C1514.96 599.666 1511.74 602.256 1507.71 604.534C1503.77 606.709 1499.42 608.47 1494.66 609.816C1489.89 611.059 1485.13 611.681 1480.36 611.681ZM1568.42 611.681C1560.34 611.681 1553.14 609.868 1546.82 606.243C1540.61 602.618 1535.69 597.595 1532.06 591.174C1528.54 584.752 1526.78 577.451 1526.78 569.269C1526.78 561.19 1528.54 553.992 1532.06 547.674C1535.69 541.356 1540.61 536.385 1546.82 532.76C1553.14 529.135 1560.34 527.323 1568.42 527.323C1576.39 527.323 1583.48 529.135 1589.7 532.76C1596.02 536.385 1600.94 541.356 1604.46 547.674C1608.08 553.992 1609.9 561.19 1609.9 569.269C1609.9 577.451 1608.08 584.752 1604.46 591.174C1600.94 597.595 1596.02 602.618 1589.7 606.243C1583.48 609.868 1576.39 611.681 1568.42 611.681ZM1568.42 600.65C1574.11 600.65 1579.19 599.304 1583.64 596.611C1588.09 593.815 1591.56 590.086 1594.05 585.425C1596.53 580.661 1597.78 575.276 1597.78 569.269C1597.78 563.262 1596.53 557.928 1594.05 553.267C1591.56 548.606 1588.09 544.981 1583.64 542.392C1579.19 539.699 1574.11 538.353 1568.42 538.353C1562.72 538.353 1557.59 539.699 1553.04 542.392C1548.58 544.981 1545.06 548.658 1542.47 553.422C1539.99 558.083 1538.79 563.365 1538.9 569.269C1538.79 575.276 1539.99 580.661 1542.47 585.425C1545.06 590.086 1548.58 593.815 1553.04 596.611C1557.59 599.304 1562.72 600.65 1568.42 600.65ZM1623.79 610.127V529.032H1635.28L1635.75 545.965L1633.89 546.742C1634.92 543.221 1636.94 540.01 1639.94 537.11C1642.95 534.21 1646.52 531.88 1650.66 530.119C1654.91 528.255 1659.26 527.323 1663.71 527.323C1669.72 527.323 1674.74 528.514 1678.78 530.896C1682.82 533.278 1685.88 536.955 1687.95 541.926C1690.02 546.897 1691.06 553.215 1691.06 560.879V610.127H1679.25V561.501C1679.25 556.115 1678.52 551.713 1677.07 548.296C1675.73 544.774 1673.6 542.185 1670.7 540.528C1667.8 538.871 1664.23 538.094 1659.99 538.198C1656.46 538.198 1653.2 538.819 1650.2 540.062C1647.19 541.201 1644.6 542.806 1642.43 544.878C1640.25 546.949 1638.55 549.331 1637.3 552.024C1636.06 554.717 1635.44 557.617 1635.44 560.724V610.127H1629.69C1628.97 610.127 1628.14 610.127 1627.21 610.127C1626.27 610.127 1625.13 610.127 1623.79 610.127ZM1743.13 611.681C1735.77 611.681 1729.14 609.868 1723.24 606.243C1717.44 602.618 1712.83 597.647 1709.41 591.329C1706.1 584.908 1704.44 577.658 1704.44 569.579C1704.44 561.397 1706.15 554.147 1709.57 547.83C1712.99 541.408 1717.6 536.385 1723.4 532.76C1729.2 529.135 1735.72 527.323 1742.97 527.323C1747.01 527.323 1750.89 527.944 1754.62 529.187C1758.46 530.43 1761.87 532.19 1764.88 534.469C1767.88 536.644 1770.37 539.181 1772.33 542.081C1774.3 544.878 1775.49 547.83 1775.91 550.937L1772.33 549.694V495.164H1783.99V610.127H1772.49L1772.18 589.931L1775.13 588.843C1774.72 591.743 1773.52 594.591 1771.56 597.388C1769.69 600.081 1767.31 602.515 1764.41 604.69C1761.51 606.864 1758.2 608.573 1754.47 609.816C1750.84 611.059 1747.06 611.681 1743.13 611.681ZM1744.84 600.961C1750.22 600.961 1755.04 599.615 1759.28 596.922C1763.53 594.229 1766.84 590.5 1769.23 585.736C1771.71 580.972 1772.95 575.535 1772.95 569.424C1772.95 563.313 1771.71 557.928 1769.23 553.267C1766.84 548.503 1763.53 544.774 1759.28 542.081C1755.04 539.285 1750.22 537.887 1744.84 537.887C1739.24 537.887 1734.32 539.285 1730.08 542.081C1725.93 544.774 1722.62 548.503 1720.13 553.267C1717.75 557.928 1716.56 563.313 1716.56 569.424C1716.56 575.431 1717.75 580.817 1720.13 585.581C1722.52 590.345 1725.83 594.125 1730.08 596.922C1734.32 599.615 1739.24 600.961 1744.84 600.961ZM1839.46 611.681C1831.38 611.681 1824.18 609.868 1817.87 606.243C1811.65 602.618 1806.73 597.595 1803.11 591.174C1799.59 584.752 1797.83 577.451 1797.83 569.269C1797.83 561.19 1799.59 553.992 1803.11 547.674C1806.73 541.356 1811.65 536.385 1817.87 532.76C1824.18 529.135 1831.38 527.323 1839.46 527.323C1847.44 527.323 1854.53 529.135 1860.75 532.76C1867.06 536.385 1871.98 541.356 1875.5 547.674C1879.13 553.992 1880.94 561.19 1880.94 569.269C1880.94 577.451 1879.13 584.752 1875.5 591.174C1871.98 597.595 1867.06 602.618 1860.75 606.243C1854.53 609.868 1847.44 611.681 1839.46 611.681ZM1839.46 600.65C1845.16 600.65 1850.23 599.304 1854.69 596.611C1859.14 593.815 1862.61 590.086 1865.1 585.425C1867.58 580.661 1868.82 575.276 1868.82 569.269C1868.82 563.262 1867.58 557.928 1865.1 553.267C1862.61 548.606 1859.14 544.981 1854.69 542.392C1850.23 539.699 1845.16 538.353 1839.46 538.353C1833.77 538.353 1828.64 539.699 1824.08 542.392C1819.63 544.981 1816.11 548.658 1813.52 553.422C1811.03 558.083 1809.84 563.365 1809.94 569.269C1809.84 575.276 1811.03 580.661 1813.52 585.425C1816.11 590.086 1819.63 593.815 1824.08 596.611C1828.64 599.304 1833.77 600.65 1839.46 600.65ZM1894.68 610.127V529.032H1906.33L1906.64 547.519L1904.31 548.296C1905.14 545.189 1906.48 542.392 1908.35 539.906C1910.32 537.317 1912.65 535.09 1915.34 533.226C1918.03 531.362 1920.98 529.964 1924.2 529.032C1927.41 527.996 1930.77 527.478 1934.29 527.478C1938.54 527.478 1942.32 528.203 1945.63 529.653C1949.05 530.999 1951.9 533.382 1954.18 536.799C1956.56 540.114 1958.37 544.515 1959.62 550.005L1956.82 548.606L1957.91 545.965C1958.94 543.583 1960.44 541.305 1962.41 539.13C1964.48 536.851 1966.81 534.832 1969.4 533.071C1972.1 531.31 1975 529.964 1978.1 529.032C1981.31 527.996 1984.58 527.478 1987.89 527.478C1993.59 527.478 1998.4 528.721 2002.34 531.207C2006.27 533.589 2009.23 537.265 2011.19 542.237C2013.27 547.208 2014.3 553.526 2014.3 561.19V610.127H2002.34V561.812C2002.34 556.426 2001.67 552.024 2000.32 548.606C1998.97 545.189 1996.95 542.651 1994.26 540.994C1991.67 539.233 1988.36 538.353 1984.32 538.353C1980.8 538.353 1977.53 538.974 1974.53 540.217C1971.63 541.356 1969.09 543.014 1966.92 545.189C1964.85 547.26 1963.19 549.642 1961.95 552.335C1960.81 555.028 1960.24 557.928 1960.24 561.035V610.127H1948.43V561.656C1948.43 556.478 1947.71 552.18 1946.26 548.762C1944.91 545.344 1942.89 542.755 1940.2 540.994C1937.5 539.233 1934.19 538.353 1930.25 538.353C1926.84 538.353 1923.68 538.974 1920.78 540.217C1917.88 541.356 1915.34 542.962 1913.17 545.033C1911.09 547.105 1909.44 549.487 1908.19 552.18C1907.05 554.872 1906.48 557.772 1906.48 560.879V610.127H1894.68ZM2033.28 610.127V529.032H2044.93V610.127H2033.28ZM2029.08 517.069L2024.89 510.7L2046.95 492.212L2054.56 502L2029.08 517.069ZM2064.46 610.127V529.032H2075.95L2076.42 545.965L2074.55 546.742C2075.59 543.221 2077.61 540.01 2080.61 537.11C2083.62 534.21 2087.19 531.88 2091.33 530.119C2095.58 528.255 2099.93 527.323 2104.38 527.323C2110.39 527.323 2115.41 528.514 2119.45 530.896C2123.49 533.278 2126.55 536.955 2128.62 541.926C2130.69 546.897 2131.72 553.215 2131.72 560.879V610.127H2119.92V561.501C2119.92 556.115 2119.19 551.713 2117.74 548.296C2116.4 544.774 2114.27 542.185 2111.37 540.528C2108.47 538.871 2104.9 538.094 2100.65 538.198C2097.13 538.198 2093.87 538.819 2090.87 540.062C2087.86 541.201 2085.27 542.806 2083.1 544.878C2080.92 546.949 2079.21 549.331 2077.97 552.024C2076.73 554.717 2076.11 557.617 2076.11 560.724V610.127H2070.36C2069.63 610.127 2068.81 610.127 2067.87 610.127C2066.94 610.127 2065.8 610.127 2064.46 610.127ZM2153.97 610.127V529.032H2165.62V610.127H2153.97ZM2159.71 511.476C2156.81 511.476 2154.59 510.751 2153.03 509.301C2151.58 507.748 2150.86 505.677 2150.86 503.087C2150.86 500.498 2151.64 498.427 2153.19 496.873C2154.74 495.32 2156.92 494.543 2159.71 494.543C2162.51 494.543 2164.69 495.32 2166.24 496.873C2167.79 498.323 2168.57 500.394 2168.57 503.087C2168.57 505.573 2167.79 507.593 2166.24 509.146C2164.69 510.7 2162.51 511.476 2159.71 511.476ZM2223.84 611.681C2215.77 611.681 2208.57 609.868 2202.25 606.243C2196.04 602.618 2191.12 597.595 2187.49 591.174C2183.97 584.752 2182.21 577.451 2182.21 569.269C2182.21 561.19 2183.97 553.992 2187.49 547.674C2191.12 541.356 2196.04 536.385 2202.25 532.76C2208.57 529.135 2215.77 527.323 2223.84 527.323C2231.82 527.323 2238.91 529.135 2245.13 532.76C2251.45 536.385 2256.36 541.356 2259.89 547.674C2263.51 553.992 2265.32 561.19 2265.32 569.269C2265.32 577.451 2263.51 584.752 2259.89 591.174C2256.36 597.595 2251.45 602.618 2245.13 606.243C2238.91 609.868 2231.82 611.681 2223.84 611.681ZM2223.84 600.65C2229.54 600.65 2234.62 599.304 2239.07 596.611C2243.52 593.815 2246.99 590.086 2249.48 585.425C2251.96 580.661 2253.21 575.276 2253.21 569.269C2253.21 563.262 2251.96 557.928 2249.48 553.267C2246.99 548.606 2243.52 544.981 2239.07 542.392C2234.62 539.699 2229.54 538.353 2223.84 538.353C2218.15 538.353 2213.02 539.699 2208.46 542.392C2204.01 544.981 2200.49 548.658 2197.9 553.422C2195.41 558.083 2194.22 563.365 2194.33 569.269C2194.22 575.276 2195.41 580.661 2197.9 585.425C2200.49 590.086 2204.01 593.815 2208.46 596.611C2213.02 599.304 2218.15 600.65 2223.84 600.65ZM2305.78 611.681C2298.84 611.681 2292.63 610.386 2287.14 607.797C2281.65 605.207 2277.3 601.79 2274.09 597.543L2282.32 590.397C2285.33 594.022 2288.85 596.766 2292.89 598.631C2297.03 600.495 2301.64 601.427 2306.71 601.427C2309.3 601.427 2311.63 601.168 2313.7 600.65C2315.78 600.029 2317.59 599.149 2319.14 598.009C2320.7 596.87 2321.89 595.524 2322.72 593.97C2323.54 592.416 2323.96 590.708 2323.96 588.843C2323.96 585.425 2322.46 582.577 2319.45 580.299C2318.11 579.367 2316.19 578.435 2313.7 577.502C2311.22 576.467 2308.22 575.483 2304.69 574.551C2298.89 572.894 2294.08 571.236 2290.25 569.579C2286.41 567.819 2283.41 565.799 2281.24 563.52C2279.68 561.656 2278.49 559.637 2277.66 557.462C2276.94 555.287 2276.57 552.904 2276.57 550.315C2276.57 547.001 2277.25 543.946 2278.59 541.149C2280.04 538.353 2282.01 535.919 2284.5 533.848C2287.09 531.673 2290.09 530.067 2293.51 529.032C2297.03 527.892 2300.81 527.323 2304.85 527.323C2308.68 527.323 2312.46 527.841 2316.19 528.876C2319.92 529.912 2323.39 531.414 2326.6 533.382C2329.81 535.349 2332.55 537.68 2334.83 540.373L2327.69 548.14C2325.72 546.069 2323.54 544.205 2321.16 542.547C2318.78 540.89 2316.24 539.596 2313.55 538.664C2310.96 537.731 2308.27 537.265 2305.47 537.265C2302.99 537.265 2300.65 537.576 2298.48 538.198C2296.41 538.819 2294.6 539.699 2293.04 540.839C2291.59 541.874 2290.45 543.169 2289.62 544.722C2288.9 546.276 2288.54 547.985 2288.54 549.849C2288.54 551.403 2288.85 552.801 2289.47 554.044C2290.09 555.287 2290.97 556.374 2292.11 557.306C2293.56 558.445 2295.58 559.533 2298.17 560.569C2300.86 561.501 2304.18 562.485 2308.11 563.52C2312.67 564.763 2316.5 566.058 2319.61 567.404C2322.82 568.647 2325.46 570.149 2327.53 571.91C2330.33 573.981 2332.3 576.363 2333.43 579.056C2334.68 581.749 2335.3 584.804 2335.3 588.222C2335.3 592.779 2334 596.818 2331.42 600.34C2328.93 603.861 2325.46 606.657 2321.01 608.729C2316.55 610.697 2311.48 611.681 2305.78 611.681Z" fill="white"/>
</svg>
